<svg width="24" height="24" viewBox="0 0 24 24" fill="none" xmlns="http://www.w3.org/2000/svg">
<path fill-rule="evenodd" clip-rule="evenodd" d="M17.0134 22H8.66555C5.59919 22 3.24679 20.8924 3.91498 16.4348L4.69301 10.3936C5.10491 8.16931 6.52367 7.31805 7.76852 7.31805H17.947C19.2102 7.31805 20.5466 8.23339 21.0225 10.3936L21.8006 16.4348C22.3681 20.389 20.0797 22 17.0134 22Z" stroke="#8F95B2" stroke-width="1.5" stroke-linecap="round" stroke-linejoin="round"/>
<path d="M17.1512 7.09839C17.1512 4.71232 15.2169 2.77802 12.8309 2.77802V2.77802C11.6819 2.77315 10.5782 3.22618 9.76406 4.03694C8.94987 4.84769 8.49218 5.94938 8.49219 7.09839V7.09839" stroke="#8F95B2" stroke-width="1.5" stroke-linecap="round" stroke-linejoin="round"/>
<path d="M15.797 11.6018H15.7512" stroke="#8F95B2" stroke-width="1.5" stroke-linecap="round" stroke-linejoin="round"/>
<path d="M9.96492 11.6018H9.91916" stroke="#8F95B2" stroke-width="1.5" stroke-linecap="round" stroke-linejoin="round"/>
</svg>
