<svg width="20" height="20" viewBox="0 0 20 20" fill="none" xmlns="http://www.w3.org/2000/svg">
<path fill-rule="evenodd" clip-rule="evenodd" d="M1.66699 5.71449C1.66699 4.64103 2.09342 3.61153 2.85248 2.85248C3.61153 2.09342 4.64103 1.66699 5.71449 1.66699H10.0003C10.2213 1.66699 10.4333 1.75479 10.5896 1.91107C10.7459 2.06735 10.8337 2.27931 10.8337 2.50033C10.8337 2.72134 10.7459 2.9333 10.5896 3.08958C10.4333 3.24586 10.2213 3.33366 10.0003 3.33366H5.71449C5.08306 3.33366 4.47748 3.5845 4.03099 4.03099C3.5845 4.47748 3.33366 5.08306 3.33366 5.71449V14.2862C3.33366 14.9176 3.5845 15.5232 4.03099 15.9697C4.47748 16.4162 5.08306 16.667 5.71449 16.667H14.2862C14.9176 16.667 15.5232 16.4162 15.9697 15.9697C16.4162 15.5232 16.667 14.9176 16.667 14.2862V10.0003C16.667 9.77931 16.7548 9.56735 16.9111 9.41107C17.0673 9.25479 17.2793 9.16699 17.5003 9.16699C17.7213 9.16699 17.9333 9.25479 18.0896 9.41107C18.2459 9.56735 18.3337 9.77931 18.3337 10.0003V14.2862C18.3337 15.3596 17.9072 16.3891 17.1482 17.1482C16.3891 17.9072 15.3596 18.3337 14.2862 18.3337H5.71449C4.64103 18.3337 3.61153 17.9072 2.85248 17.1482C2.09342 16.3891 1.66699 15.3596 1.66699 14.2862V5.71449Z" fill="#225FDD"/>
<path fill-rule="evenodd" clip-rule="evenodd" d="M12.6146 11.0164L10.7771 12.1247L9.91623 10.6972L11.7537 9.58887L11.7562 9.5872C11.8267 9.54478 11.8916 9.49384 11.9496 9.43553L16.1246 5.23887C16.1664 5.1967 16.2067 5.15307 16.2454 5.10803C16.5212 4.78637 16.9296 4.1497 16.4354 3.65303C16.0179 3.23303 15.4196 3.6297 15.0321 3.97053C14.9281 4.06217 14.828 4.15808 14.7321 4.25803L14.7037 4.28637L10.5871 8.42387C10.4893 8.52103 10.4127 8.63735 10.3621 8.76553L9.67539 10.493C9.66237 10.5255 9.65992 10.5613 9.66838 10.5953C9.67685 10.6293 9.6958 10.6597 9.72255 10.6823C9.7493 10.7049 9.78249 10.7185 9.8174 10.7212C9.85232 10.7239 9.88635 10.7155 9.91623 10.6972L10.7771 12.1247C9.27289 13.0314 7.47706 11.508 8.12706 9.87637L8.81456 8.1497C8.94841 7.81228 9.14975 7.50574 9.40623 7.24887L13.5221 3.11053L13.5462 3.08637C13.6687 2.96137 14.0804 2.5397 14.5796 2.23637C14.8521 2.0722 15.2871 1.8547 15.8246 1.81303C16.4412 1.76387 17.0996 1.95803 17.6162 2.4772C18.0117 2.86786 18.2604 3.3829 18.3204 3.93553C18.3617 4.36628 18.2958 4.80055 18.1287 5.1997C17.8871 5.7972 17.4837 6.23637 17.3062 6.41387L13.1312 10.6105C12.9757 10.7666 12.8034 10.9019 12.6146 11.0164ZM16.3254 5.07803C16.3254 5.07803 16.3221 5.08053 16.3146 5.08303L16.3254 5.07803Z" fill="#225FDD"/>
</svg>
