<svg width="30" height="28" viewBox="0 0 30 28" fill="none" xmlns="http://www.w3.org/2000/svg">
<path d="M3 12.6494V18.6574C3 22.4347 3 24.3227 4.172 25.4961C5.34267 26.6694 7.22933 26.6694 11 26.6694H19C22.7707 26.6694 24.6573 26.6694 25.828 25.4961C26.9987 24.3227 27 22.4347 27 18.6574V12.6494M8.33333 21.9654H13.6667H8.33333Z" fill="#CA0022"/>
<path d="M3 12.6494V18.6574C3 22.4347 3 24.3227 4.172 25.4961C5.34267 26.6694 7.22933 26.6694 11 26.6694H19C22.7707 26.6694 24.6573 26.6694 25.828 25.4961C26.9987 24.3227 27 22.4347 27 18.6574V12.6494M8.33333 21.9654H13.6667" stroke="white" stroke-width="2" stroke-linecap="round" stroke-linejoin="round"/>
<path d="M22.7281 1.33347L7.20012 1.37347C4.88279 1.25347 4.28812 3.03881 4.28812 3.91081C4.28812 4.69081 4.18812 5.82814 2.76812 7.96681C1.34679 10.1041 1.45346 10.7401 2.25479 12.2201C2.91879 13.4468 4.60946 13.9268 5.49212 14.0081C8.29212 14.0721 9.65479 11.6535 9.65479 9.95347C11.0441 14.2241 14.9948 14.2241 16.7548 13.7361C18.5175 13.2468 20.0295 11.4961 20.3855 9.95347C20.5935 11.8695 21.2255 12.9881 23.0881 13.7561C25.0201 14.5521 26.6801 13.3361 27.5135 12.5561C28.3468 11.7761 28.8815 10.0455 27.3961 8.14281C26.3721 6.83081 25.9441 5.59347 25.8041 4.31347C25.7241 3.57081 25.6521 2.77347 25.1295 2.26547C24.3668 1.52414 23.2708 1.29881 22.7281 1.33347Z" fill="#CA0022" stroke="white" stroke-width="2" stroke-linecap="round" stroke-linejoin="round"/>
</svg>
